<svg width="14" height="14" viewBox="0 0 14 14" fill="none" xmlns="http://www.w3.org/2000/svg">
<path id="Subtract" d="M7.07017 0.200012C5.22338 0.200012 4.99161 0.208087 4.26627 0.241096C3.54235 0.274246 3.04821 0.388854 2.61584 0.557012C2.16859 0.730696 1.78921 0.963029 1.41123 1.34114C1.03298 1.7191 0.800645 2.09849 0.626393 2.54559C0.457808 2.9781 0.343057 3.47237 0.310473 4.196C0.278031 4.92134 0.269531 5.15325 0.269531 7.00001C0.269531 8.84678 0.277748 9.07784 0.310615 9.80317C0.343907 10.5271 0.458517 11.0212 0.626535 11.4536C0.800362 11.9008 1.0327 12.2802 1.41081 12.6582C1.78864 13.0364 2.16803 13.2693 2.61499 13.443C3.04764 13.6112 3.54192 13.7258 4.26571 13.7589C4.99105 13.7919 5.22267 13.8 7.06932 13.8C8.91625 13.8 9.14731 13.7919 9.87265 13.7589C10.5966 13.7258 11.0913 13.6112 11.5239 13.443C11.971 13.2693 12.3499 13.0364 12.7277 12.6582C13.1059 12.2802 13.3383 11.9008 13.5125 11.4537C13.6797 11.0212 13.7944 10.5269 13.8284 9.80331C13.861 9.07798 13.8695 8.84678 13.8695 7.00001C13.8695 5.15325 13.861 4.92148 13.8284 4.19615C13.7944 3.47223 13.6797 2.9781 13.5125 2.54573C13.3383 2.09849 13.1059 1.7191 12.7277 1.34114C12.3494 0.962887 11.9712 0.730554 11.5235 0.557012C11.09 0.388854 10.5956 0.274246 9.87166 0.241096C9.14632 0.208087 8.9154 0.200012 7.06804 0.200012H7.07017ZM6.46015 1.42543C6.6412 1.42515 6.84322 1.42543 7.07017 1.42543C8.88579 1.42543 9.10098 1.43195 9.81796 1.46453C10.481 1.49485 10.8408 1.60563 11.0805 1.6987C11.3978 1.82195 11.6241 1.96929 11.862 2.20729C12.1 2.44529 12.2473 2.67195 12.3708 2.98929C12.4639 3.2287 12.5748 3.58854 12.605 4.25154C12.6376 4.96837 12.6447 5.1837 12.6447 6.99845C12.6447 8.8132 12.6376 9.02854 12.605 9.74537C12.5747 10.4084 12.4639 10.7682 12.3708 11.0076C12.2476 11.325 12.1 11.5509 11.862 11.7888C11.624 12.0268 11.398 12.1741 11.0805 12.2974C10.8411 12.3909 10.481 12.5014 9.81796 12.5317C9.10112 12.5643 8.88579 12.5713 7.07017 12.5713C5.25441 12.5713 5.03921 12.5643 4.32237 12.5317C3.65937 12.5011 3.29953 12.3903 3.05969 12.2972C2.74235 12.174 2.51568 12.0266 2.27768 11.7886C2.03967 11.5506 1.89234 11.3245 1.76881 11.0071C1.67573 10.7676 1.5648 10.4078 1.53463 9.7448C1.50204 9.02797 1.49553 8.81264 1.49553 6.99675C1.49553 5.18087 1.50204 4.96667 1.53463 4.24984C1.56494 3.58684 1.67573 3.227 1.76881 2.9873C1.89206 2.66997 2.03967 2.4433 2.27768 2.2053C2.51568 1.9673 2.74235 1.81997 3.05969 1.69644C3.29939 1.60294 3.65937 1.49244 4.32237 1.46198C4.94968 1.43365 5.19278 1.42515 6.46015 1.42373V1.42543ZM10.7 2.55451C10.2495 2.55451 9.88398 2.91959 9.88398 3.37023C9.88398 3.82073 10.2495 4.18623 10.7 4.18623C11.1505 4.18623 11.516 3.82073 11.516 3.37023C11.516 2.91973 11.1505 2.55423 10.7 2.55423V2.55451ZM7.07017 3.50793C5.14164 3.50793 3.57805 5.0715 3.57805 7.00001C3.57805 8.92852 5.14164 10.4914 7.07017 10.4914C8.9987 10.4914 10.5617 8.92852 10.5617 7.00001C10.5617 5.0715 8.99856 3.50793 7.07003 3.50793H7.07017ZM7.07017 4.73335C8.32195 4.73335 9.33686 5.7481 9.33686 7.00001C9.33686 8.25178 8.32195 9.26668 7.07017 9.26668C5.81825 9.26668 4.80348 8.25178 4.80348 7.00001C4.80348 5.7481 5.81825 4.73335 7.07017 4.73335Z" fill="#838888"/>
</svg>
