<svg width="12" height="12" viewBox="0 0 12 12" fill="none" xmlns="http://www.w3.org/2000/svg">
<path id="Subtract" fill-rule="evenodd" clip-rule="evenodd" d="M10.5766 3.43854C10.5808 3.55069 10.5822 3.66279 10.5822 3.77493C10.5822 7.17493 8.24364 11.1 3.96718 11.1C2.65353 11.1 1.43202 10.6718 0.402832 9.94289C0.584759 9.96328 0.769523 9.97861 0.95712 9.97861C2.04632 9.97861 3.04951 9.56563 3.84527 8.87238C2.82789 8.85709 1.96883 8.10776 1.67254 7.08827C1.81478 7.11886 1.96125 7.13419 2.11105 7.13419C2.32227 7.13419 2.52735 7.10364 2.72393 7.04248C1.6593 6.80799 0.857415 5.76814 0.857415 4.51926C0.857415 4.50397 0.857415 4.49884 0.857415 4.48865C1.17118 4.67725 1.5303 4.79444 1.91164 4.80973C1.28695 4.34586 0.876306 3.55578 0.876306 2.66372C0.876306 2.19476 0.99066 1.75126 1.19196 1.36895C2.33834 2.92877 4.05224 3.95337 5.98445 4.06042C5.94475 3.87181 5.92443 3.67306 5.92443 3.47426C5.92443 2.05207 6.96542 0.900024 8.24978 0.900024C8.91842 0.900024 9.52232 1.21101 9.94618 1.71056C10.4768 1.59842 10.974 1.38434 11.4238 1.08869C11.2494 1.69019 10.8813 2.19473 10.4003 2.51077C10.8709 2.4496 11.3199 2.31208 11.7362 2.10818C11.4238 2.62302 11.0307 3.07663 10.5766 3.43854Z" fill="#858888"/>
</svg>
